<?xml version="1.0" encoding="utf-8"?>
<!-- Generator: Adobe Illustrator 16.0.0, SVG Export Plug-In . SVG Version: 6.00 Build 0)  -->
<!DOCTYPE svg PUBLIC "-//W3C//DTD SVG 1.1//EN" "http://www.w3.org/Graphics/SVG/1.1/DTD/svg11.dtd">
<svg version="1.1" id="Layer_1" xmlns="http://www.w3.org/2000/svg" xmlns:xlink="http://www.w3.org/1999/xlink" x="0px" y="0px"
	 width="242px" height="89px" viewBox="0 0 242 89" enable-background="new 0 0 242 89" xml:space="preserve">
<g>
	<g>
		<defs>
			<rect id="SVGID_1_" x="-121" y="-302.26" width="485" height="685.521"/>
		</defs>
		<clipPath id="SVGID_2_">
			<use xlink:href="#SVGID_1_"  overflow="visible"/>
		</clipPath>
		<path clip-path="url(#SVGID_2_)" fill="#FF0000" d="M182.303,16.083c0.646-3.241,3.299-4.525,6.198-4.525h1.091
			c4.17,0.641,5.639,3.168,5.864,6.176l0.121,18.884v0.209c0.121,21.616-10.382,32.841-37.99,32.873H72.375
			c-11.702,0.243-20.013,3.653-24.93,10.168c-0.924-19.688,5.781-30.715,20.114-34.36c-8.254-1.258-11.037-11.134-4.453-14.254
			c-8.145-9.206,3.189-24.13,19.262-16.241c3.331-4.593,12.157-3.316,12.354,3.17v13.633c-0.099,2.11,2.538,2.124,2.491,0V18.191
			c0.197-5.626,5.879-6.013,7.818-5.648V7.875c0.104-7.757,13.738-8.177,14.601,0v5.572c5.771-2.136,11.667,0.138,15.716,5.263
			c4.664-9.105,21.734-8.049,25.783-0.838C164.431,11.317,176.882,9.686,182.303,16.083z"/>
		<path clip-path="url(#SVGID_2_)" fill="#FFFFFF" d="M176.979,42.862c0,0.923-0.346,1.713-1.039,2.368
			c-0.692,0.655-1.539,0.983-2.538,0.983c-1,0-1.853-0.328-2.563-0.983c-0.709-0.655-1.063-1.445-1.063-2.368
			c0-0.924,0.354-1.706,1.063-2.347c0.71-0.64,1.563-0.96,2.563-0.96c0.968,0,1.806,0.328,2.514,0.983
			C176.626,41.193,176.979,41.968,176.979,42.862z"/>
		<path clip-path="url(#SVGID_2_)" fill="#FFFFFF" d="M191.309,38.297c0,2.443-1.017,3.665-3.046,3.665
			c-2.031,0-3.047-1.221-3.047-3.665V20.645c0-2.442,1.016-3.665,3.047-3.665c2.029,0,3.046,1.207,3.046,3.62V38.297z"/>
		<path clip-path="url(#SVGID_2_)" fill="#FFFFFF" d="M173.008,21.675c-0.95-0.002-1.677,0.176-2.289,0.534
			c-0.741,0.388-1.111,0.954-1.111,1.699c0,0.715,0.5,1.296,1.498,1.743l1.902,0.774l3.175,1.281
			c2.063,0.894,3.609,1.758,4.642,2.592c1.192,0.983,1.788,2.368,1.788,4.156c0,2.413-1.079,4.334-3.238,5.765
			c-1.791,1.187-3.913,1.823-6.366,1.911l-0.597,0.011c-3.803,0-6.704-0.968-8.702-2.904c-0.677-0.656-1.016-1.356-1.016-2.101
			c0-1.698,0.919-2.547,2.756-2.547c0.645,0,1.685,0.425,3.119,1.274c1.434,0.849,2.796,1.273,4.085,1.273l0.354-0.008
			c0.818-0.039,1.538-0.214,2.159-0.528c0.87-0.417,1.306-1.027,1.306-1.832c0-1.013-1.112-1.981-3.336-2.904
			c-3.658-1.481-5.662-2.343-6.141-2.638c-2.224-1.37-3.335-3.098-3.335-5.184c0-2.264,0.982-4.081,2.949-5.452
			c1.753-1.209,3.887-1.819,6.397-1.832c1.821,0,3.643,0.387,5.544,1.162c2.288,0.923,3.433,2.085,3.433,3.486
			c0,0.686-0.242,1.258-0.726,1.72c-0.483,0.461-1.096,0.693-1.837,0.693c-0.58,0-1.579-0.358-2.998-1.073
			C175.063,22.059,173.924,21.702,173.008,21.675z"/>
		<path clip-path="url(#SVGID_2_)" fill="#FFFFFF" d="M148.205,36.777c2.061-0.018,3.631-0.8,4.714-2.353
			c0.935-1.304,1.403-2.979,1.403-5.02c0-1.981-0.452-3.643-1.354-4.975c-1.096-1.602-2.659-2.398-4.689-2.398
			c-2.133,0.018-3.704,0.785-4.787,2.309c-0.935,1.333-1.401,3.024-1.401,5.065c0,1.981,0.451,3.642,1.354,4.975
			c1.096,1.602,2.659,2.398,4.689,2.398L148.205,36.777z M148.205,16.818c11.696,0.5,12.049,9.516,12.16,14.193v7.286
			c0,2.443-0.983,3.665-2.95,3.665c-1.192,0-1.998-0.492-2.417-1.475c-0.097-0.387-0.258-0.923-0.483-1.608
			c-1.668,1.845-3.755,2.861-6.31,3.05c-0.291,0.021-0.59,0.033-0.894,0.033c-3.481,0-6.302-1.303-8.461-3.917
			c-1.967-2.406-2.949-5.258-2.949-8.551c0-2.585,0.612-4.901,1.837-6.949c1.289-2.227,3.143-3.843,5.561-4.849
			c1.417-0.596,2.852-0.894,4.302-0.894L148.205,16.818z"/>
		<path clip-path="url(#SVGID_2_)" fill="#FFFFFF" d="M121.372,36.908c2.28,0.003,3.844-0.816,4.907-2.455
			c0.87-1.371,1.305-3.068,1.305-5.095c0-1.966-0.467-3.649-1.401-5.049c-1.097-1.668-2.644-2.503-4.642-2.503
			c-2.183,0.043-3.754,0.817-4.883,2.324c-1,1.341-1.499,3.024-1.499,5.05v0.358c0,2.025,0.516,3.709,1.547,5.049
			C117.826,36.083,119.381,36.856,121.372,36.908z M121.372,16.741c0.261-0.019,0.527-0.028,0.798-0.028
			c3.545,0,6.413,1.355,8.605,4.066c1.998,2.473,2.998,5.393,2.998,8.759c0,3.366-1.048,6.242-3.143,8.625
			c-2.257,2.563-5.157,3.843-8.703,3.843l-0.556-0.012c-2.622-0.116-12.321-0.333-11.966-13.25V10.195
			c0-2.48,1.016-3.717,3.046-3.717c1.966,0,2.949,1.222,2.949,3.665v9.295C117.137,17.807,119.08,16.908,121.372,16.741z"/>
		<path clip-path="url(#SVGID_2_)" fill="#FFFFFF" d="M83.872,34.454c0,2.413-1.08,4.334-3.239,5.765
			c-1.935,1.282-4.255,1.922-6.962,1.922c-3.803,0-6.704-0.968-8.703-2.904c-0.677-0.656-1.016-1.356-1.016-2.101
			c0-1.698,0.919-2.547,2.756-2.547c0.645,0,1.684,0.425,3.119,1.274s2.796,1.273,4.085,1.273c0.967,0,1.805-0.179,2.515-0.536
			c0.87-0.417,1.306-1.027,1.306-1.832c0-1.013-1.113-1.981-3.336-2.904c-3.61-1.46-5.658-2.339-6.141-2.638
			c-2.224-1.37-3.336-3.098-3.336-5.184c0-2.264,0.983-4.081,2.949-5.452c1.773-1.222,3.933-1.832,6.479-1.832
			c1.74,0,3.562,0.387,5.463,1.162c2.288,0.923,3.432,2.085,3.432,3.486c0,0.686-0.242,1.258-0.725,1.72
			c-0.483,0.461-1.095,0.693-1.837,0.693c-0.58,0-1.579-0.358-2.997-1.073c-1.418-0.715-2.595-1.073-3.53-1.073
			c-0.837,0-1.563,0.179-2.175,0.536c-0.742,0.388-1.113,0.954-1.113,1.699c0,0.715,0.5,1.296,1.499,1.743
			c1.676,0.686,3.369,1.371,5.077,2.056c2.063,0.894,3.61,1.758,4.642,2.592C83.275,31.281,83.872,32.666,83.872,34.454z"/>
		<path clip-path="url(#SVGID_2_)" fill="#FFFFFF" d="M97.905,36.756c2.105-0.622,3.159-2.432,3.159-5.43V20.6
			c0-2.413,1.032-3.62,3.094-3.62c1.998,0,2.998,1.207,2.998,3.62v11.53c0,3.218-0.983,5.69-2.95,7.418
			c-1.599,1.406-3.7,2.24-6.301,2.501c-0.597,0.061-1.22,0.091-1.87,0.091c-3.448,0-6.164-0.872-8.146-2.614
			c-1.982-1.744-2.973-4.209-2.973-7.396V20.6c0-2.413,1.015-3.62,3.046-3.62c2.03,0,3.045,1.207,3.045,3.62v10.726
			c0,3.783,1.677,5.675,5.028,5.675C96.731,37.001,97.354,36.919,97.905,36.756z"/>
		<path clip-path="url(#SVGID_2_)" fill-rule="evenodd" clip-rule="evenodd" fill="#FFFFFF" d="M79.027,64.299
			c-15.072-0.278-19.034,1.067-26.442,5.778l0.425-2.75c2.671-13.576,14.662-19.972,35.971-19.187h75.891
			c14.995,0.409,20.257-2.434,26.971-8.33c-1.041,14.987-11.942,23.891-29.379,24.488H79.027z"/>
		<path clip-path="url(#SVGID_2_)" d="M116.224,53.432c0.755-0.001,1.273,0.271,1.626,0.813c0.288,0.454,0.433,1.017,0.433,1.688
			c0,0.651-0.155,1.209-0.464,1.673c-0.364,0.553-0.876,0.829-1.539,0.829c-0.724-0.014-1.244-0.271-1.618-0.77
			c-0.332-0.444-0.497-1.002-0.497-1.674v-0.118c0-0.672,0.171-1.229,0.514-1.673C115.048,53.705,115.563,53.449,116.224,53.432z
			 M116.224,60.114c0.086,0.007,0.174,0.01,0.264,0.01c1.175,0,2.125-0.449,2.852-1.348c0.663-0.819,0.993-1.787,0.993-2.902
			s-0.347-2.068-1.041-2.858c-0.748-0.849-1.709-1.273-2.884-1.273l-0.184,0.005c-0.87,0.038-4.083,0.109-3.966,4.391v6.146
			c0,0.821,0.336,1.231,1.009,1.231c0.652,0,0.978-0.405,0.978-1.215v-3.08C114.82,59.762,115.463,60.06,116.224,60.114z"/>
		<path clip-path="url(#SVGID_2_)" d="M107.611,58.427c0.682-0.006,1.203-0.265,1.562-0.78c0.31-0.432,0.465-0.986,0.465-1.663
			c0-0.656-0.15-1.207-0.449-1.648c-0.363-0.531-0.881-0.795-1.554-0.795c-0.707,0.006-1.228,0.26-1.586,0.765
			c-0.31,0.442-0.464,1.003-0.464,1.679c0,0.656,0.15,1.207,0.448,1.648c0.363,0.53,0.881,0.795,1.555,0.795H107.611z
			 M107.611,51.813c3.876,0.166,3.993,3.153,4.029,4.703v2.415c0,0.81-0.326,1.214-0.978,1.214c-0.396,0-0.662-0.163-0.801-0.488
			c-0.032-0.129-0.086-0.307-0.161-0.533c-0.552,0.611-1.244,0.948-2.09,1.011c-0.097,0.007-0.196,0.011-0.297,0.011
			c-1.153,0-2.088-0.432-2.804-1.298c-0.651-0.798-0.978-1.743-0.978-2.834c0-0.856,0.203-1.624,0.609-2.302
			c0.428-0.739,1.042-1.274,1.843-1.607c0.47-0.197,0.945-0.296,1.426-0.296L107.611,51.813z"/>
		<path clip-path="url(#SVGID_2_)" d="M100.103,53.438c-0.076-0.012-0.146-0.017-0.214-0.017c-0.278,0-0.518,0.059-0.721,0.177
			c-0.245,0.129-0.368,0.316-0.368,0.563c0,0.236,0.166,0.429,0.497,0.577l0.807,0.328l0.875,0.354
			c0.684,0.296,1.196,0.582,1.538,0.858c0.396,0.326,0.593,0.785,0.593,1.377c0,0.8-0.358,1.437-1.074,1.911
			c-0.55,0.364-1.194,0.572-1.933,0.623c-0.123,0.009-0.247,0.014-0.374,0.014c-1.26,0-2.222-0.321-2.884-0.963
			c-0.224-0.218-0.336-0.449-0.336-0.695c0-0.563,0.304-0.845,0.913-0.845c0.213,0,0.558,0.141,1.033,0.422
			c0.476,0.281,0.927,0.423,1.354,0.423c0.102,0,0.2-0.007,0.294-0.019c0.2-0.025,0.379-0.079,0.539-0.16
			c0.288-0.138,0.433-0.34,0.433-0.606c0-0.315-0.324-0.617-0.972-0.905l-0.134-0.058c-1.196-0.483-1.875-0.775-2.035-0.874
			c-0.737-0.454-1.105-1.026-1.105-1.718c0-0.75,0.325-1.353,0.978-1.807c0.587-0.404,1.303-0.607,2.146-0.607l0.15,0.003
			c0.531,0.021,1.085,0.148,1.661,0.383c0.758,0.306,1.137,0.691,1.137,1.155c0,0.227-0.08,0.416-0.24,0.569
			c-0.16,0.153-0.363,0.23-0.608,0.23c-0.192,0-0.523-0.119-0.993-0.356C100.691,53.592,100.372,53.479,100.103,53.438z"/>
		<path clip-path="url(#SVGID_2_)" d="M91.82,58.427c0.682-0.006,1.203-0.265,1.562-0.78c0.31-0.432,0.465-0.986,0.465-1.663
			c0-0.656-0.15-1.207-0.449-1.648c-0.363-0.531-0.881-0.795-1.554-0.795c-0.707,0.006-1.228,0.26-1.586,0.765
			c-0.31,0.442-0.464,1.003-0.464,1.679c0,0.656,0.149,1.207,0.448,1.648c0.363,0.53,0.881,0.795,1.555,0.795H91.82z M91.82,51.813
			c3.875,0.166,3.993,3.153,4.029,4.703v2.415c0,0.81-0.326,1.214-0.978,1.214c-0.396,0-0.662-0.163-0.801-0.488
			c-0.032-0.129-0.086-0.307-0.161-0.533c-0.552,0.611-1.244,0.948-2.09,1.011c-0.097,0.007-0.196,0.011-0.297,0.011
			c-1.153,0-2.088-0.432-2.804-1.298c-0.652-0.798-0.978-1.743-0.978-2.834c0-0.856,0.203-1.624,0.609-2.302
			c0.428-0.739,1.042-1.274,1.843-1.607c0.47-0.197,0.945-0.296,1.426-0.296L91.82,51.813z"/>
		<path clip-path="url(#SVGID_2_)" d="M157.702,51.837c0.298-0.019,0.542,0.084,0.729,0.252s0.28,0.39,0.28,0.666
			c0,0.316-0.192,0.568-0.577,0.755l-1.186,0.444c-0.48,0.198-0.796,0.449-0.945,0.756c-0.128,0.257-0.191,0.646-0.191,1.17v3.08
			c0,0.79-0.343,1.185-1.025,1.185l-0.134-0.006c-0.584-0.051-0.876-0.448-0.876-1.193v-3.617
			C153.763,54.116,154.666,52.027,157.702,51.837z"/>
		<path clip-path="url(#SVGID_2_)" d="M139.506,63.411c-1.044-0.037-1.907-0.267-2.588-0.689c-0.47-0.297-0.705-0.627-0.705-0.992
			c0-0.228,0.078-0.41,0.232-0.549c0.155-0.138,0.355-0.206,0.602-0.206c0.182,0,0.501,0.107,0.961,0.325
			c0.506,0.241,1.005,0.388,1.498,0.438c0.131,0.014,0.263,0.021,0.393,0.021c1.464,0,2.195-0.814,2.195-2.443v-0.312
			c-0.572,0.761-1.341,1.141-2.355,1.141l-0.232-0.006c-1.036-0.057-1.883-0.499-2.54-1.327c-0.641-0.8-0.96-1.742-0.96-2.828
			c0-1.125,0.331-2.083,0.993-2.873c0.651-0.778,1.486-1.208,2.507-1.289c0.117-0.01,0.237-0.012,0.36-0.014
			c3.972-0.077,4.165,3.072,4.165,3.457v3.681c0,0.612-0.047,1.16-0.144,1.644c-0.192,0.948-0.662,1.664-1.41,2.147
			c-0.693,0.454-1.581,0.682-2.659,0.682L139.506,63.411z M139.506,58.414c0.171,0.048,0.355,0.072,0.553,0.072
			c0.673,0,1.201-0.247,1.586-0.741c0.342-0.434,0.513-0.972,0.513-1.613c0-0.741-0.149-1.338-0.448-1.792
			c-0.363-0.543-0.919-0.814-1.666-0.814c-0.192,0-0.37,0.024-0.537,0.073c-0.392,0.116-0.715,0.368-0.969,0.756
			c-0.321,0.483-0.481,1.036-0.481,1.658c0,0.642,0.154,1.195,0.465,1.659C138.775,58.053,139.104,58.3,139.506,58.414z"/>
		<path clip-path="url(#SVGID_2_)" d="M136.197,59.212c0,0.553-0.39,0.829-1.169,0.829h-4.983c-0.705,0-1.058-0.192-1.058-0.578
			c0-0.246,0.123-0.527,0.369-0.844l3.861-4.99h-2.948c-0.299,0-0.566-0.071-0.801-0.215c-0.235-0.143-0.353-0.348-0.353-0.614
			c0-0.563,0.39-0.845,1.169-0.845h4.55c0.77,0,1.154,0.203,1.154,0.605c0,0.214-0.142,0.5-0.427,0.854l-3.819,4.938h3.301
			C135.813,58.353,136.197,58.639,136.197,59.212z"/>
		<path clip-path="url(#SVGID_2_)" d="M148.828,58.427c0.682-0.006,1.202-0.265,1.562-0.78c0.31-0.432,0.465-0.986,0.465-1.663
			c0-0.656-0.149-1.207-0.448-1.648c-0.364-0.531-0.881-0.795-1.555-0.795c-0.706,0.006-1.227,0.26-1.586,0.765
			c-0.31,0.442-0.465,1.003-0.465,1.679c0,0.656,0.15,1.207,0.449,1.648c0.363,0.53,0.881,0.795,1.554,0.795H148.828z
			 M148.828,51.813c3.875,0.166,3.992,3.153,4.029,4.703v2.415c0,0.81-0.326,1.214-0.978,1.214c-0.396,0-0.662-0.163-0.801-0.488
			c-0.032-0.129-0.086-0.307-0.16-0.533c-0.554,0.611-1.245,0.948-2.091,1.011c-0.097,0.007-0.196,0.011-0.297,0.011
			c-1.153,0-2.089-0.432-2.804-1.298c-0.651-0.798-0.978-1.743-0.978-2.834c0-0.856,0.203-1.624,0.609-2.302
			c0.427-0.739,1.041-1.274,1.842-1.607c0.471-0.197,0.946-0.296,1.426-0.296L148.828,51.813z"/>
		<path clip-path="url(#SVGID_2_)" d="M162.442,58.427c0.684-0.006,1.204-0.265,1.563-0.78c0.31-0.432,0.464-0.986,0.464-1.663
			c0-0.656-0.149-1.207-0.448-1.648c-0.363-0.531-0.881-0.795-1.554-0.795c-0.707,0.006-1.228,0.26-1.587,0.765
			c-0.31,0.442-0.465,1.003-0.465,1.679c0,0.656,0.149,1.207,0.449,1.648c0.363,0.53,0.881,0.795,1.554,0.795H162.442z
			 M162.442,51.813c3.876,0.166,3.993,3.153,4.03,4.703v2.415c0,0.81-0.326,1.214-0.978,1.214c-0.396,0-0.663-0.163-0.801-0.488
			c-0.032-0.129-0.086-0.307-0.16-0.533c-0.554,0.611-1.244,0.948-2.092,1.011c-0.096,0.007-0.194,0.011-0.296,0.011
			c-1.153,0-2.088-0.432-2.804-1.298c-0.651-0.798-0.978-1.743-0.978-2.834c0-0.856,0.203-1.624,0.609-2.302
			c0.428-0.739,1.041-1.274,1.843-1.607c0.47-0.197,0.945-0.296,1.426-0.296L162.442,51.813z"/>
		<path clip-path="url(#SVGID_2_)" d="M128.036,58.931c0,0.81-0.336,1.214-1.009,1.214c-0.674,0-1.01-0.404-1.01-1.214v-5.85
			c0-0.81,0.336-1.215,1.01-1.215c0.673,0,1.009,0.4,1.009,1.2V58.931z"/>
		<path clip-path="url(#SVGID_2_)" d="M82.655,55.068c1.449-0.185,2.29-0.852,2.524-2.129c-0.039-1.348,1.948-1.54,1.948,0.018
			c0.055,1.441-0.689,2.441-1.779,3.033c1.09,0.614,1.834,1.613,1.779,3.055c0,1.558-1.987,1.366-1.948,0.018
			c-0.235-1.277-1.076-1.943-2.524-2.128v1.996c0,0.81-0.336,1.214-1.009,1.214c-0.673,0-1.009-0.404-1.009-1.214v-5.85
			c0-0.81,0.336-1.215,1.009-1.215c0.673,0,1.009,0.4,1.009,1.2V55.068z"/>
	</g>
</g>
</svg>
