<?xml version="1.0" encoding="utf-8"?>
<!-- Generator: Adobe Illustrator 16.0.0, SVG Export Plug-In . SVG Version: 6.00 Build 0)  -->
<!DOCTYPE svg PUBLIC "-//W3C//DTD SVG 1.1//EN" "http://www.w3.org/Graphics/SVG/1.1/DTD/svg11.dtd">
<svg version="1.1" id="Layer_1" xmlns="http://www.w3.org/2000/svg" xmlns:xlink="http://www.w3.org/1999/xlink" x="0px" y="0px"
	 width="430px" height="240px" viewBox="0 0 430 240" enable-background="new 0 0 430 240" xml:space="preserve">
<g>
	<g>
		<defs>
			<rect id="SVGID_1_" x="-445.886" y="-813.92" width="1320.768" height="1866.833"/>
		</defs>
		<clipPath id="SVGID_2_">
			<use xlink:href="#SVGID_1_"  overflow="visible"/>
		</clipPath>
		<path clip-path="url(#SVGID_2_)" fill="#FF0000" d="M380.077,53.003c1.758-8.826,8.983-12.324,16.88-12.324h2.971
			c11.354,1.746,15.355,8.628,15.97,16.819l0.329,51.426v0.57c0.329,58.865-28.271,89.434-103.456,89.519H80.717
			c-31.868,0.661-54.5,9.948-67.893,27.688C10.311,173.09,28.57,143.061,67.6,133.133c-22.478-3.428-30.056-30.32-12.126-38.818
			c-22.179-25.071,8.686-65.712,52.455-44.228c9.072-12.508,33.106-9.029,33.644,8.632v37.126c-0.269,5.747,6.911,5.782,6.783,0
			V58.742c0.535-15.32,16.011-16.374,21.29-15.381V30.649c0.284-21.124,37.411-22.268,39.761,0v15.174
			c15.716-5.818,31.77,0.376,42.798,14.331c12.702-24.796,59.188-21.919,70.215-2.282C331.407,40.022,365.314,35.581,380.077,53.003
			z"/>
		<path clip-path="url(#SVGID_2_)" fill="#FFFFFF" d="M365.581,125.928c0,2.515-0.942,4.665-2.831,6.449
			c-1.886,1.785-4.19,2.678-6.91,2.678c-2.723,0-5.047-0.893-6.979-2.678c-1.932-1.784-2.896-3.935-2.896-6.449
			c0-2.517,0.964-4.646,2.896-6.39c1.932-1.743,4.256-2.615,6.979-2.615c2.634,0,4.916,0.892,6.846,2.676
			C364.617,121.384,365.581,123.494,365.581,125.928z"/>
		<path clip-path="url(#SVGID_2_)" fill="#FFFFFF" d="M404.601,113.495c0,6.654-2.766,9.98-8.294,9.98
			c-5.531,0-8.296-3.327-8.296-9.98V65.424c0-6.651,2.765-9.979,8.296-9.979c5.528,0,8.294,3.287,8.294,9.858V113.495z"/>
		<path clip-path="url(#SVGID_2_)" fill="#FFFFFF" d="M354.765,68.229c-2.589-0.005-4.565,0.481-6.232,1.455
			c-2.019,1.056-3.028,2.597-3.028,4.625c0,1.948,1.361,3.53,4.082,4.746l5.179,2.109l8.646,3.489
			c5.617,2.434,9.829,4.788,12.639,7.06c3.247,2.676,4.87,6.449,4.87,11.317c0,6.571-2.939,11.804-8.818,15.699
			c-4.877,3.231-10.656,4.964-17.337,5.204l-1.624,0.03c-10.357,0-18.257-2.637-23.698-7.91c-1.845-1.786-2.766-3.693-2.766-5.721
			c0-4.624,2.502-6.937,7.505-6.937c1.756,0,4.587,1.156,8.493,3.468c3.904,2.313,7.613,3.468,11.125,3.468l0.965-0.022
			c2.229-0.105,4.188-0.584,5.881-1.438c2.369-1.137,3.555-2.798,3.555-4.989c0-2.76-3.028-5.396-9.085-7.91
			c-9.963-4.032-15.419-6.379-16.722-7.182c-6.055-3.731-9.083-8.437-9.083-14.116c0-6.166,2.677-11.114,8.031-14.847
			c4.775-3.292,10.585-4.954,17.423-4.989c4.96,0,9.919,1.055,15.098,3.164c6.23,2.515,9.348,5.679,9.348,9.493
			c0,1.867-0.659,3.427-1.975,4.685c-1.318,1.257-2.985,1.887-5.003,1.887c-1.581,0-4.301-0.975-8.164-2.921
			C360.361,69.276,357.26,68.304,354.765,68.229z"/>
		<path clip-path="url(#SVGID_2_)" fill="#FFFFFF" d="M287.222,109.357c5.61-0.049,9.887-2.179,12.837-6.409
			c2.545-3.55,3.82-8.112,3.82-13.67c0-5.396-1.229-9.919-3.688-13.548c-2.985-4.361-7.243-6.531-12.771-6.531
			c-5.808,0.047-10.087,2.136-13.037,6.286c-2.545,3.631-3.817,8.235-3.817,13.793c0,5.396,1.229,9.917,3.688,13.548
			c2.982,4.362,7.24,6.532,12.771,6.532L287.222,109.357z M287.222,55.003c31.851,1.363,32.811,25.913,33.114,38.65v19.842
			c0,6.654-2.68,9.98-8.033,9.98c-3.248,0-5.441-1.34-6.582-4.017c-0.264-1.055-0.702-2.515-1.317-4.38
			c-4.542,5.024-10.226,7.791-17.182,8.308c-0.794,0.059-1.606,0.089-2.435,0.089c-9.479,0-17.16-3.55-23.041-10.669
			c-5.354-6.552-8.031-14.32-8.031-23.286c0-7.039,1.667-13.346,5.003-18.923c3.51-6.064,8.559-10.466,15.142-13.204
			c3.861-1.624,7.768-2.435,11.717-2.435L287.222,55.003z"/>
		<path clip-path="url(#SVGID_2_)" fill="#FFFFFF" d="M214.149,109.714c6.208,0.009,10.465-2.223,13.362-6.685
			c2.371-3.732,3.555-8.356,3.555-13.874c0-5.354-1.272-9.938-3.817-13.751c-2.984-4.543-7.198-6.815-12.64-6.815
			c-5.944,0.117-10.223,2.224-13.297,6.328c-2.723,3.653-4.082,8.235-4.082,13.752v0.974c0,5.516,1.405,10.101,4.214,13.751
			C204.491,107.466,208.727,109.572,214.149,109.714z M214.149,54.793c0.711-0.052,1.435-0.078,2.172-0.078
			c9.654,0,17.465,3.692,23.436,11.074c5.44,6.734,8.163,14.686,8.163,23.854c0,9.167-2.853,16.998-8.558,23.487
			c-6.146,6.979-14.045,10.466-23.701,10.466l-1.513-0.032c-7.141-0.315-33.555-0.906-32.588-36.085V36.968
			c0-6.754,2.766-10.122,8.296-10.122c5.354,0,8.032,3.326,8.032,9.98v25.313C202.616,57.697,207.906,55.249,214.149,54.793z"/>
		<path clip-path="url(#SVGID_2_)" fill="#FFFFFF" d="M112.026,103.029c0,6.571-2.939,11.804-8.82,15.699
			c-5.268,3.49-11.587,5.234-18.959,5.234c-10.357,0-18.257-2.637-23.7-7.91c-1.843-1.786-2.766-3.693-2.766-5.721
			c0-4.624,2.503-6.937,7.504-6.937c1.756,0,4.587,1.156,8.494,3.468c3.906,2.313,7.615,3.468,11.125,3.468
			c2.634,0,4.915-0.486,6.848-1.46c2.369-1.137,3.555-2.798,3.555-4.989c0-2.76-3.031-5.396-9.085-7.91
			c-9.831-3.977-15.406-6.369-16.722-7.182c-6.057-3.731-9.085-8.437-9.085-14.116c0-6.166,2.677-11.114,8.031-14.847
			c4.828-3.326,10.709-4.989,17.644-4.989c4.739,0,9.698,1.055,14.877,3.164c6.232,2.515,9.348,5.679,9.348,9.493
			c0,1.867-0.659,3.427-1.975,4.685c-1.315,1.257-2.982,1.887-5.003,1.887c-1.581,0-4.301-0.975-8.162-2.921
			c-3.863-1.946-7.067-2.921-9.614-2.921c-2.281,0-4.255,0.487-5.922,1.46c-2.021,1.056-3.031,2.597-3.031,4.625
			c0,1.948,1.361,3.53,4.082,4.746c4.565,1.867,9.174,3.732,13.826,5.598c5.617,2.434,9.831,4.788,12.64,7.06
			C110.402,94.388,112.026,98.162,112.026,103.029z"/>
		<path clip-path="url(#SVGID_2_)" fill="#FFFFFF" d="M150.243,109.299c5.734-1.694,8.602-6.623,8.602-14.789V65.303
			c0-6.571,2.809-9.858,8.426-9.858c5.441,0,8.164,3.287,8.164,9.858v31.398c0,8.762-2.677,15.495-8.032,20.202
			c-4.355,3.828-10.076,6.099-17.16,6.812c-1.625,0.165-3.323,0.247-5.092,0.247c-9.391,0-16.785-2.374-22.185-7.119
			c-5.398-4.748-8.097-11.461-8.097-20.142V65.303c0-6.571,2.764-9.858,8.296-9.858c5.528,0,8.294,3.287,8.294,9.858v29.208
			c0,10.304,4.565,15.455,13.691,15.455C147.046,109.966,148.743,109.744,150.243,109.299z"/>
		<path clip-path="url(#SVGID_2_)" fill-rule="evenodd" clip-rule="evenodd" fill="#FFFFFF" d="M98.833,184.305
			c-41.044-0.758-51.835,2.908-72.008,15.736l1.158-7.489c7.275-36.971,39.928-54.389,97.956-52.249h206.669
			c40.834,1.114,55.163-6.627,73.446-22.686c-2.836,40.815-32.521,65.061-80.006,66.688H98.833z"/>
		<path clip-path="url(#SVGID_2_)" d="M200.128,154.711c2.057-0.003,3.468,0.736,4.429,2.215c0.785,1.236,1.177,2.77,1.177,4.598
			c0,1.774-0.422,3.294-1.264,4.557c-0.991,1.506-2.387,2.259-4.19,2.259c-1.97-0.039-3.388-0.736-4.407-2.097
			c-0.902-1.21-1.353-2.729-1.353-4.557v-0.323c0-1.828,0.466-3.347,1.398-4.557C196.928,155.455,198.331,154.758,200.128,154.711z
			 M200.128,172.91c0.236,0.017,0.475,0.025,0.72,0.025c3.199,0,5.788-1.223,7.767-3.669c1.804-2.231,2.704-4.866,2.704-7.904
			s-0.945-5.633-2.835-7.783c-2.036-2.313-4.654-3.469-7.854-3.469l-0.5,0.012c-2.367,0.104-11.121,0.3-10.8,11.958v16.738
			c0,2.238,0.917,3.354,2.749,3.354c1.775,0,2.662-1.103,2.662-3.308v-8.388C196.306,171.948,198.058,172.759,200.128,172.91z"/>
		<path clip-path="url(#SVGID_2_)" d="M176.675,168.314c1.858-0.017,3.275-0.722,4.253-2.125c0.843-1.176,1.266-2.688,1.266-4.529
			c0-1.788-0.408-3.287-1.223-4.49c-0.988-1.445-2.399-2.163-4.231-2.163c-1.925,0.015-3.343,0.707-4.32,2.083
			c-0.843,1.203-1.264,2.729-1.264,4.57c0,1.787,0.408,3.286,1.22,4.489c0.989,1.445,2.4,2.165,4.234,2.165H176.675z
			 M176.675,150.303c10.555,0.45,10.874,8.586,10.973,12.807v6.576c0,2.204-0.889,3.307-2.662,3.307
			c-1.077,0-1.803-0.444-2.181-1.331c-0.089-0.349-0.234-0.833-0.438-1.451c-1.504,1.665-3.388,2.582-5.692,2.753
			c-0.265,0.02-0.533,0.029-0.809,0.029c-3.141,0-5.686-1.176-7.635-3.535c-1.773-2.172-2.662-4.746-2.662-7.717
			c0-2.332,0.553-4.422,1.658-6.27c1.164-2.011,2.835-3.469,5.019-4.377c1.279-0.538,2.573-0.807,3.882-0.807L176.675,150.303z"/>
		<path clip-path="url(#SVGID_2_)" d="M156.227,154.729c-0.206-0.03-0.399-0.045-0.583-0.045c-0.756,0-1.411,0.16-1.964,0.483
			c-0.667,0.35-1.001,0.86-1.001,1.532c0,0.646,0.451,1.17,1.353,1.573l2.196,0.894l2.384,0.962
			c1.862,0.806,3.258,1.585,4.188,2.339c1.078,0.887,1.615,2.138,1.615,3.75c0,2.178-0.976,3.912-2.924,5.203
			c-1.498,0.991-3.251,1.559-5.263,1.698c-0.334,0.023-0.672,0.035-1.019,0.035c-3.432,0-6.05-0.874-7.854-2.621
			c-0.611-0.592-0.915-1.223-0.915-1.896c0-1.532,0.828-2.299,2.486-2.299c0.581,0,1.52,0.383,2.814,1.149
			c1.294,0.767,2.523,1.149,3.687,1.149c0.278,0,0.544-0.017,0.8-0.05c0.544-0.069,1.032-0.214,1.467-0.435
			c0.785-0.376,1.179-0.927,1.179-1.652c0-0.857-0.882-1.681-2.646-2.466l-0.364-0.156c-3.258-1.317-5.105-2.11-5.541-2.379
			c-2.007-1.237-3.011-2.797-3.011-4.679c0-2.044,0.887-3.683,2.662-4.919c1.6-1.103,3.548-1.654,5.846-1.654l0.408,0.008
			c1.446,0.055,2.955,0.402,4.522,1.04c2.065,0.834,3.098,1.883,3.098,3.146c0,0.618-0.217,1.135-0.655,1.553
			c-0.436,0.417-0.988,0.625-1.656,0.625c-0.524,0-1.426-0.323-2.705-0.969C157.828,155.146,156.959,154.84,156.227,154.729z"/>
		<path clip-path="url(#SVGID_2_)" d="M133.671,168.314c1.858-0.017,3.275-0.722,4.253-2.125c0.843-1.176,1.266-2.688,1.266-4.529
			c0-1.788-0.407-3.287-1.223-4.49c-0.988-1.445-2.399-2.163-4.231-2.163c-1.925,0.015-3.343,0.707-4.32,2.083
			c-0.843,1.203-1.264,2.729-1.264,4.57c0,1.787,0.405,3.286,1.22,4.489c0.989,1.445,2.4,2.165,4.234,2.165H133.671z
			 M133.671,150.303c10.553,0.45,10.874,8.586,10.973,12.807v6.576c0,2.204-0.889,3.307-2.662,3.307
			c-1.077,0-1.803-0.444-2.181-1.331c-0.089-0.349-0.234-0.833-0.438-1.451c-1.504,1.665-3.388,2.582-5.692,2.753
			c-0.265,0.02-0.533,0.029-0.809,0.029c-3.141,0-5.686-1.176-7.635-3.535c-1.775-2.172-2.662-4.746-2.662-7.717
			c0-2.332,0.553-4.422,1.658-6.27c1.165-2.011,2.835-3.469,5.019-4.377c1.279-0.538,2.573-0.807,3.882-0.807L133.671,150.303z"/>
		<path clip-path="url(#SVGID_2_)" d="M313.083,150.367c0.813-0.05,1.476,0.229,1.985,0.687c0.508,0.457,0.763,1.062,0.763,1.815
			c0,0.859-0.524,1.546-1.571,2.056l-3.228,1.21c-1.31,0.539-2.168,1.224-2.575,2.057c-0.35,0.699-0.522,1.762-0.522,3.186v8.39
			c0,2.15-0.933,3.226-2.792,3.226l-0.364-0.016c-1.592-0.139-2.385-1.222-2.385-3.251v-9.85
			C302.354,156.576,304.815,150.887,313.083,150.367z"/>
		<path clip-path="url(#SVGID_2_)" d="M263.532,181.889c-2.844-0.102-5.194-0.729-7.047-1.88c-1.281-0.806-1.921-1.707-1.921-2.702
			c0-0.618,0.212-1.115,0.633-1.492c0.423-0.376,0.967-0.563,1.637-0.563c0.494,0,1.365,0.295,2.618,0.887
			c1.377,0.658,2.736,1.057,4.08,1.194c0.355,0.037,0.713,0.057,1.066,0.057c3.986,0,5.979-2.219,5.979-6.655v-0.847
			c-1.556,2.07-3.65,3.105-6.414,3.105l-0.631-0.018c-2.822-0.153-5.129-1.359-6.917-3.612c-1.745-2.178-2.617-4.745-2.617-7.702
			c0-3.065,0.902-5.673,2.706-7.824c1.773-2.12,4.049-3.291,6.828-3.511c0.318-0.025,0.646-0.031,0.979-0.038
			c10.817-0.208,11.344,8.367,11.344,9.416v10.022c0,1.667-0.13,3.159-0.392,4.477c-0.522,2.581-1.804,4.53-3.839,5.847
			c-1.891,1.237-4.306,1.856-7.243,1.856L263.532,181.889z M263.532,168.278c0.464,0.131,0.967,0.197,1.505,0.197
			c1.831,0,3.271-0.673,4.317-2.017c0.933-1.183,1.396-2.648,1.396-4.396c0-2.017-0.405-3.643-1.221-4.88
			c-0.988-1.479-2.501-2.219-4.537-2.219c-0.522,0-1.008,0.067-1.461,0.202c-1.066,0.314-1.946,1-2.641,2.057
			c-0.873,1.317-1.309,2.823-1.309,4.517c0,1.747,0.42,3.254,1.266,4.517C261.542,167.295,262.436,167.969,263.532,168.278z"/>
		<path clip-path="url(#SVGID_2_)" d="M254.521,170.451c0,1.506-1.06,2.259-3.184,2.259h-13.57c-1.919,0-2.879-0.524-2.879-1.573
			c0-0.672,0.334-1.438,1.004-2.298l10.516-13.591h-8.029c-0.813,0-1.542-0.195-2.181-0.585c-0.64-0.39-0.961-0.947-0.961-1.674
			c0-1.532,1.063-2.299,3.185-2.299h12.391c2.095,0,3.144,0.552,3.144,1.647c0,0.584-0.386,1.363-1.164,2.325l-10.398,13.449h8.987
			C253.474,168.112,254.521,168.892,254.521,170.451z"/>
		<path clip-path="url(#SVGID_2_)" d="M288.917,168.314c1.857-0.017,3.275-0.722,4.253-2.125c0.843-1.176,1.266-2.688,1.266-4.529
			c0-1.788-0.407-3.287-1.221-4.49c-0.99-1.445-2.399-2.163-4.233-2.163c-1.923,0.015-3.34,0.707-4.318,2.083
			c-0.843,1.203-1.266,2.729-1.266,4.57c0,1.787,0.407,3.286,1.223,4.489c0.988,1.445,2.397,2.165,4.231,2.165H288.917z
			 M288.917,150.303c10.555,0.45,10.873,8.586,10.973,12.807v6.576c0,2.204-0.887,3.307-2.662,3.307
			c-1.075,0-1.804-0.444-2.181-1.331c-0.087-0.349-0.234-0.833-0.436-1.451c-1.507,1.665-3.391,2.582-5.694,2.753
			c-0.263,0.02-0.533,0.029-0.807,0.029c-3.142,0-5.688-1.176-7.635-3.535c-1.775-2.172-2.662-4.746-2.662-7.717
			c0-2.332,0.551-4.422,1.658-6.27c1.162-2.011,2.836-3.469,5.017-4.377c1.281-0.538,2.575-0.807,3.882-0.807L288.917,150.303z"/>
		<path clip-path="url(#SVGID_2_)" d="M325.994,168.314c1.859-0.017,3.277-0.722,4.255-2.125c0.844-1.176,1.264-2.688,1.264-4.529
			c0-1.788-0.405-3.287-1.22-4.49c-0.989-1.445-2.4-2.163-4.231-2.163c-1.926,0.015-3.343,0.707-4.32,2.083
			c-0.844,1.203-1.267,2.729-1.267,4.57c0,1.787,0.408,3.286,1.223,4.489c0.988,1.445,2.399,2.165,4.231,2.165H325.994z
			 M325.994,150.303c10.555,0.45,10.873,8.586,10.973,12.807v6.576c0,2.204-0.887,3.307-2.662,3.307
			c-1.075,0-1.803-0.444-2.181-1.331c-0.087-0.349-0.231-0.833-0.436-1.451c-1.507,1.665-3.388,2.582-5.694,2.753
			c-0.263,0.02-0.531,0.029-0.807,0.029c-3.141,0-5.686-1.176-7.635-3.535c-1.775-2.172-2.662-4.746-2.662-7.717
			c0-2.332,0.553-4.422,1.658-6.27c1.164-2.011,2.836-3.469,5.019-4.377c1.279-0.538,2.573-0.807,3.883-0.807L325.994,150.303z"/>
		<path clip-path="url(#SVGID_2_)" d="M232.297,169.686c0,2.204-0.917,3.307-2.748,3.307c-1.834,0-2.749-1.103-2.749-3.307v-15.93
			c0-2.205,0.915-3.308,2.749-3.308c1.831,0,2.748,1.09,2.748,3.268V169.686z"/>
		<path clip-path="url(#SVGID_2_)" d="M108.713,159.168c3.945-0.504,6.235-2.318,6.874-5.797c-0.104-3.672,5.307-4.193,5.307,0.048
			c0.15,3.924-1.877,6.646-4.845,8.261c2.968,1.672,4.995,4.393,4.845,8.318c0,4.241-5.411,3.72-5.307,0.048
			c-0.639-3.479-2.929-5.293-6.874-5.796v5.436c0,2.204-0.915,3.307-2.749,3.307c-1.832,0-2.749-1.103-2.749-3.307v-15.93
			c0-2.205,0.917-3.308,2.749-3.308c1.834,0,2.749,1.09,2.749,3.268V159.168z"/>
	</g>
</g>
</svg>
